<svg xmlns="http://www.w3.org/2000/svg" viewBox="0 0 900 620">
  <defs><linearGradient id="bg" x1="0" y1="0" x2="1" y2="1"><stop stop-color="#e5e3dc"/><stop offset="1" stop-color="#eef1ed"/></linearGradient></defs>
  <rect width="900" height="620" rx="44" fill="url(#bg)"/>
  <g stroke="#b9b7ae" stroke-width="2" opacity=".56">
    <path d="M0 112H900M0 228H900M0 344H900M0 460H900"/>
    <path d="M145 0V620M305 0V620M465 0V620M625 0V620M785 0V620"/>
  </g>
  <g fill="#f9f8f3" stroke="#d5d1c5" stroke-width="4">
    <path d="M70 70h210v145H70z"/><path d="M345 80h150v120H345z"/><path d="M590 75h225v145H590z"/>
    <path d="M110 325h175v150H110z"/><path d="M370 290h180v190H370z"/><path d="M650 330h150v145H650z"/>
  </g>
  <g fill="none" stroke="#2f302d" stroke-width="8" stroke-linecap="round">
    <path d="M176 140L420 140 700 148"/><path d="M195 400L460 386 728 405"/><path d="M420 140L460 386"/>
  </g>
  <g fill="#fff" stroke="#2f302d" stroke-width="7">
    <circle cx="176" cy="140" r="17"/><circle cx="420" cy="140" r="17"/><circle cx="700" cy="148" r="17"/>
    <circle cx="195" cy="400" r="17"/><circle cx="460" cy="386" r="17"/><circle cx="728" cy="405" r="17"/>
  </g>
  <circle cx="460" cy="386" r="10" fill="#ffd55a"/>
</svg>
